<?xml version="1.0" encoding="UTF-8"?>
<svg width="24px" height="24px" viewBox="0 0 24 24" version="1.1" xmlns="http://www.w3.org/2000/svg" xmlns:xlink="http://www.w3.org/1999/xlink">
    <title>Icon/Phone</title>
    <defs>
        <filter id="filter-1">
            <feColorMatrix in="SourceGraphic" type="matrix" values="0 0 0 0 0.141176 0 0 0 0 0.466667 0 0 0 0 0.796078 0 0 0 1.000000 0"></feColorMatrix>
        </filter>
    </defs>
    <g id="Icon/Phone" stroke="none" stroke-width="1" fill="none" fill-rule="evenodd">
        <g filter="url(#filter-1)" id="Group">
            <g transform="translate(2.000000, 2.000000)">
                <path d="M14.0517241,19.4827586 C13.4219984,19.481743 12.7973417,19.3701638 12.2062069,19.1531034 C9.52107639,18.1716117 7.08199616,16.6169452 5.05862069,14.5972414 C3.03921502,12.5740262 1.48478694,10.1351862 0.503448276,7.45034483 C0.193259459,6.61204052 0.0984084423,5.70929597 0.227586207,4.82482759 C0.483412519,3.11940916 1.52747529,1.63405994 3.04551724,0.815862069 C3.83689003,0.389529612 4.72248366,0.168309035 5.62137931,0.172357695 C5.90610803,0.172357695 6.15217518,0.371223176 6.21172414,0.649655172 L7.15724138,5.06896552 C7.19959575,5.26868173 7.1380974,5.47627108 6.9937931,5.62068966 L5.37586207,7.24068966 C6.90727251,10.281053 9.3749591,12.7489814 12.4151724,14.2806897 L14.0351724,12.662069 C14.1796576,12.5178767 14.3871855,12.4563966 14.5868966,12.4986207 L19.0068966,13.4455172 C19.2845491,13.5052386 19.4829824,13.7504804 19.4834983,14.0344828 C19.4873224,14.9329119 19.2661088,15.8180033 18.84,16.6089655 C18.0210128,18.126125 16.5354775,19.169117 14.8303448,19.4241379 C14.5723102,19.4621243 14.3118502,19.4812554 14.0510345,19.4813793 L14.0517241,19.4827586 Z M5.13862069,1.40551724 C3.8543547,1.55142887 2.70736531,2.27673258 2.02497457,3.37444484 C1.34258382,4.47215711 1.19975261,5.82169384 1.63724138,7.03793103 C3.48633489,12.1464774 7.50938464,16.1695272 12.617931,18.0186207 C13.8341682,18.4561095 15.183705,18.3132782 16.2814172,17.6308875 C17.3791295,16.9484968 18.1044332,15.8015074 18.2503448,14.5172414 L14.6558621,13.7475862 L12.9655172,15.437931 C12.7856191,15.6177759 12.512261,15.6654963 12.282069,15.5572414 C8.68546684,13.8646064 5.79155873,10.9709422 4.09862069,7.37448276 C3.99036573,7.14429068 4.03808616,6.87093264 4.21793103,6.69103448 L5.90827586,5 L5.13862069,1.40551724 Z" id="Icon_Phone-2" stroke="#12A3FF" stroke-width="0.5" fill="#12A3FF" fill-rule="nonzero"></path>
            </g>
        </g>
    </g>
</svg>